<mxfile host="app.diagrams.net" agent="Mozilla/5.0 (Windows NT 10.0; Win64; x64) AppleWebKit/537.36 (KHTML, like Gecko) Chrome/133.0.0.0 Safari/537.36" version="26.0.16">
  <diagram name="Page-1" id="J_mY9k0pQtnQAnckpGCn">
    <mxGraphModel dx="724" dy="416" grid="1" gridSize="10" guides="1" tooltips="1" connect="1" arrows="1" fold="1" page="1" pageScale="1" pageWidth="1169" pageHeight="827" math="0" shadow="0">
      <root>
        <mxCell id="0" />
        <mxCell id="1" parent="0" />
        <mxCell id="qmi-EahxrbX9RbDCokpx-1" value="accounts" style="rounded=0;whiteSpace=wrap;html=1;" parent="1" vertex="1">
          <mxGeometry x="400" y="170" width="120" height="60" as="geometry" />
        </mxCell>
        <mxCell id="qmi-EahxrbX9RbDCokpx-2" value="d" style="ellipse;whiteSpace=wrap;html=1;aspect=fixed;" parent="1" vertex="1">
          <mxGeometry x="440" y="280" width="40" height="40" as="geometry" />
        </mxCell>
        <mxCell id="qmi-EahxrbX9RbDCokpx-3" value="" style="endArrow=none;html=1;rounded=0;shape=link;" parent="1" source="qmi-EahxrbX9RbDCokpx-2" target="qmi-EahxrbX9RbDCokpx-1" edge="1">
          <mxGeometry width="50" height="50" relative="1" as="geometry">
            <mxPoint x="360" y="340" as="sourcePoint" />
            <mxPoint x="410" y="290" as="targetPoint" />
          </mxGeometry>
        </mxCell>
        <mxCell id="qmi-EahxrbX9RbDCokpx-4" value="user" style="rounded=0;whiteSpace=wrap;html=1;" parent="1" vertex="1">
          <mxGeometry x="240" y="370" width="120" height="60" as="geometry" />
        </mxCell>
        <mxCell id="qmi-EahxrbX9RbDCokpx-5" value="admin" style="rounded=0;whiteSpace=wrap;html=1;" parent="1" vertex="1">
          <mxGeometry x="560" y="370" width="120" height="60" as="geometry" />
        </mxCell>
        <mxCell id="qmi-EahxrbX9RbDCokpx-6" value="" style="endArrow=none;html=1;rounded=0;" parent="1" source="qmi-EahxrbX9RbDCokpx-4" target="qmi-EahxrbX9RbDCokpx-2" edge="1">
          <mxGeometry width="50" height="50" relative="1" as="geometry">
            <mxPoint x="300" y="380" as="sourcePoint" />
            <mxPoint x="350" y="330" as="targetPoint" />
          </mxGeometry>
        </mxCell>
        <mxCell id="qmi-EahxrbX9RbDCokpx-7" value="" style="endArrow=none;html=1;rounded=0;" parent="1" source="qmi-EahxrbX9RbDCokpx-5" target="qmi-EahxrbX9RbDCokpx-2" edge="1">
          <mxGeometry width="50" height="50" relative="1" as="geometry">
            <mxPoint x="530" y="430" as="sourcePoint" />
            <mxPoint x="580" y="380" as="targetPoint" />
          </mxGeometry>
        </mxCell>
        <mxCell id="qmi-EahxrbX9RbDCokpx-10" value="orders" style="rounded=0;whiteSpace=wrap;html=1;" parent="1" vertex="1">
          <mxGeometry x="160" y="690" width="120" height="60" as="geometry" />
        </mxCell>
        <mxCell id="qmi-EahxrbX9RbDCokpx-11" value="menu" style="rounded=0;whiteSpace=wrap;html=1;" parent="1" vertex="1">
          <mxGeometry x="560" y="690" width="120" height="60" as="geometry" />
        </mxCell>
        <mxCell id="qmi-EahxrbX9RbDCokpx-13" value="include_items" style="rhombus;whiteSpace=wrap;html=1;" parent="1" vertex="1">
          <mxGeometry x="360" y="680" width="120" height="80" as="geometry" />
        </mxCell>
        <mxCell id="qmi-EahxrbX9RbDCokpx-14" value="" style="endArrow=none;html=1;rounded=0;" parent="1" source="qmi-EahxrbX9RbDCokpx-13" target="qmi-EahxrbX9RbDCokpx-11" edge="1">
          <mxGeometry width="50" height="50" relative="1" as="geometry">
            <mxPoint x="530" y="670" as="sourcePoint" />
            <mxPoint x="580" y="620" as="targetPoint" />
          </mxGeometry>
        </mxCell>
        <mxCell id="qmi-EahxrbX9RbDCokpx-44" value="N" style="edgeLabel;html=1;align=center;verticalAlign=middle;resizable=0;points=[];" parent="qmi-EahxrbX9RbDCokpx-14" vertex="1" connectable="0">
          <mxGeometry x="-0.5881" y="2" relative="1" as="geometry">
            <mxPoint y="-8" as="offset" />
          </mxGeometry>
        </mxCell>
        <mxCell id="qmi-EahxrbX9RbDCokpx-15" value="" style="endArrow=none;html=1;rounded=0;" parent="1" source="qmi-EahxrbX9RbDCokpx-10" target="qmi-EahxrbX9RbDCokpx-13" edge="1">
          <mxGeometry width="50" height="50" relative="1" as="geometry">
            <mxPoint x="190" y="680" as="sourcePoint" />
            <mxPoint x="240" y="630" as="targetPoint" />
          </mxGeometry>
        </mxCell>
        <mxCell id="qmi-EahxrbX9RbDCokpx-43" value="M" style="edgeLabel;html=1;align=center;verticalAlign=middle;resizable=0;points=[];" parent="qmi-EahxrbX9RbDCokpx-15" vertex="1" connectable="0">
          <mxGeometry x="0.65" relative="1" as="geometry">
            <mxPoint y="-10" as="offset" />
          </mxGeometry>
        </mxCell>
        <mxCell id="qmi-EahxrbX9RbDCokpx-16" value="place_order" style="rhombus;whiteSpace=wrap;html=1;" parent="1" vertex="1">
          <mxGeometry x="160" y="520" width="120" height="80" as="geometry" />
        </mxCell>
        <mxCell id="qmi-EahxrbX9RbDCokpx-17" value="" style="endArrow=none;html=1;rounded=0;" parent="1" source="qmi-EahxrbX9RbDCokpx-16" target="qmi-EahxrbX9RbDCokpx-4" edge="1">
          <mxGeometry width="50" height="50" relative="1" as="geometry">
            <mxPoint x="400" y="610" as="sourcePoint" />
            <mxPoint x="450" y="560" as="targetPoint" />
          </mxGeometry>
        </mxCell>
        <mxCell id="qmi-EahxrbX9RbDCokpx-42" value="1" style="edgeLabel;html=1;align=center;verticalAlign=middle;resizable=0;points=[];" parent="qmi-EahxrbX9RbDCokpx-17" vertex="1" connectable="0">
          <mxGeometry x="-0.7006" relative="1" as="geometry">
            <mxPoint x="7" y="-5" as="offset" />
          </mxGeometry>
        </mxCell>
        <mxCell id="qmi-EahxrbX9RbDCokpx-18" value="" style="endArrow=none;html=1;rounded=0;shape=link;" parent="1" source="qmi-EahxrbX9RbDCokpx-16" target="qmi-EahxrbX9RbDCokpx-10" edge="1">
          <mxGeometry width="50" height="50" relative="1" as="geometry">
            <mxPoint x="263" y="559" as="sourcePoint" />
            <mxPoint x="297" y="480" as="targetPoint" />
          </mxGeometry>
        </mxCell>
        <mxCell id="qmi-EahxrbX9RbDCokpx-41" value="N" style="edgeLabel;html=1;align=center;verticalAlign=middle;resizable=0;points=[];" parent="qmi-EahxrbX9RbDCokpx-18" vertex="1" connectable="0">
          <mxGeometry x="-0.7273" y="1" relative="1" as="geometry">
            <mxPoint x="12" y="6" as="offset" />
          </mxGeometry>
        </mxCell>
        <mxCell id="qmi-EahxrbX9RbDCokpx-19" value="&lt;u&gt;username&lt;/u&gt;" style="ellipse;whiteSpace=wrap;html=1;" parent="1" vertex="1">
          <mxGeometry x="400" y="80" width="80" height="40" as="geometry" />
        </mxCell>
        <mxCell id="qmi-EahxrbX9RbDCokpx-20" value="" style="endArrow=none;html=1;rounded=0;" parent="1" source="qmi-EahxrbX9RbDCokpx-1" target="qmi-EahxrbX9RbDCokpx-19" edge="1">
          <mxGeometry width="50" height="50" relative="1" as="geometry">
            <mxPoint x="550" y="160" as="sourcePoint" />
            <mxPoint x="600" y="110" as="targetPoint" />
          </mxGeometry>
        </mxCell>
        <mxCell id="qmi-EahxrbX9RbDCokpx-21" value="password_hash" style="ellipse;whiteSpace=wrap;html=1;" parent="1" vertex="1">
          <mxGeometry x="530" y="110" width="110" height="40" as="geometry" />
        </mxCell>
        <mxCell id="qmi-EahxrbX9RbDCokpx-22" value="" style="endArrow=none;html=1;rounded=0;" parent="1" source="qmi-EahxrbX9RbDCokpx-1" target="qmi-EahxrbX9RbDCokpx-21" edge="1">
          <mxGeometry width="50" height="50" relative="1" as="geometry">
            <mxPoint x="710" y="250" as="sourcePoint" />
            <mxPoint x="760" y="200" as="targetPoint" />
          </mxGeometry>
        </mxCell>
        <mxCell id="qmi-EahxrbX9RbDCokpx-23" value="quantity" style="ellipse;whiteSpace=wrap;html=1;" parent="1" vertex="1">
          <mxGeometry x="460" y="740" width="80" height="40" as="geometry" />
        </mxCell>
        <mxCell id="qmi-EahxrbX9RbDCokpx-24" value="" style="endArrow=none;html=1;rounded=0;" parent="1" source="qmi-EahxrbX9RbDCokpx-13" target="qmi-EahxrbX9RbDCokpx-23" edge="1">
          <mxGeometry width="50" height="50" relative="1" as="geometry">
            <mxPoint x="320" y="690" as="sourcePoint" />
            <mxPoint x="370" y="640" as="targetPoint" />
          </mxGeometry>
        </mxCell>
        <mxCell id="qmi-EahxrbX9RbDCokpx-25" value="&lt;u&gt;item_id&lt;/u&gt;" style="ellipse;whiteSpace=wrap;html=1;" parent="1" vertex="1">
          <mxGeometry x="710" y="630" width="80" height="40" as="geometry" />
        </mxCell>
        <mxCell id="qmi-EahxrbX9RbDCokpx-26" value="" style="endArrow=none;html=1;rounded=0;" parent="1" source="qmi-EahxrbX9RbDCokpx-11" target="qmi-EahxrbX9RbDCokpx-25" edge="1">
          <mxGeometry width="50" height="50" relative="1" as="geometry">
            <mxPoint x="620" y="670" as="sourcePoint" />
            <mxPoint x="670" y="620" as="targetPoint" />
          </mxGeometry>
        </mxCell>
        <mxCell id="qmi-EahxrbX9RbDCokpx-27" value="name" style="ellipse;whiteSpace=wrap;html=1;" parent="1" vertex="1">
          <mxGeometry x="730" y="700" width="80" height="40" as="geometry" />
        </mxCell>
        <mxCell id="qmi-EahxrbX9RbDCokpx-28" value="" style="endArrow=none;html=1;rounded=0;" parent="1" source="qmi-EahxrbX9RbDCokpx-11" target="qmi-EahxrbX9RbDCokpx-27" edge="1">
          <mxGeometry width="50" height="50" relative="1" as="geometry">
            <mxPoint x="680" y="790" as="sourcePoint" />
            <mxPoint x="730" y="740" as="targetPoint" />
          </mxGeometry>
        </mxCell>
        <mxCell id="qmi-EahxrbX9RbDCokpx-31" value="image_path" style="ellipse;whiteSpace=wrap;html=1;" parent="1" vertex="1">
          <mxGeometry x="650" y="780" width="80" height="40" as="geometry" />
        </mxCell>
        <mxCell id="qmi-EahxrbX9RbDCokpx-32" value="" style="endArrow=none;html=1;rounded=0;" parent="1" source="qmi-EahxrbX9RbDCokpx-31" target="qmi-EahxrbX9RbDCokpx-11" edge="1">
          <mxGeometry width="50" height="50" relative="1" as="geometry">
            <mxPoint x="520" y="840" as="sourcePoint" />
            <mxPoint x="570" y="790" as="targetPoint" />
          </mxGeometry>
        </mxCell>
        <mxCell id="qmi-EahxrbX9RbDCokpx-33" value="&lt;u&gt;order_id&lt;/u&gt;" style="ellipse;whiteSpace=wrap;html=1;" parent="1" vertex="1">
          <mxGeometry x="50" y="630" width="80" height="40" as="geometry" />
        </mxCell>
        <mxCell id="qmi-EahxrbX9RbDCokpx-34" value="" style="endArrow=none;html=1;rounded=0;" parent="1" source="qmi-EahxrbX9RbDCokpx-10" target="qmi-EahxrbX9RbDCokpx-33" edge="1">
          <mxGeometry width="50" height="50" relative="1" as="geometry">
            <mxPoint x="40" y="760" as="sourcePoint" />
            <mxPoint x="90" y="710" as="targetPoint" />
          </mxGeometry>
        </mxCell>
        <mxCell id="qmi-EahxrbX9RbDCokpx-39" value="created_at" style="ellipse;whiteSpace=wrap;html=1;" parent="1" vertex="1">
          <mxGeometry x="60" y="770" width="80" height="40" as="geometry" />
        </mxCell>
        <mxCell id="qmi-EahxrbX9RbDCokpx-40" value="" style="endArrow=none;html=1;rounded=0;" parent="1" source="qmi-EahxrbX9RbDCokpx-39" target="qmi-EahxrbX9RbDCokpx-10" edge="1">
          <mxGeometry width="50" height="50" relative="1" as="geometry">
            <mxPoint x="140" y="840" as="sourcePoint" />
            <mxPoint x="190" y="790" as="targetPoint" />
          </mxGeometry>
        </mxCell>
        <mxCell id="qmi-EahxrbX9RbDCokpx-45" value="price" style="ellipse;whiteSpace=wrap;html=1;" parent="1" vertex="1">
          <mxGeometry x="545" y="770" width="80" height="40" as="geometry" />
        </mxCell>
        <mxCell id="qmi-EahxrbX9RbDCokpx-46" value="" style="endArrow=none;html=1;rounded=0;" parent="1" source="qmi-EahxrbX9RbDCokpx-45" target="qmi-EahxrbX9RbDCokpx-11" edge="1">
          <mxGeometry width="50" height="50" relative="1" as="geometry">
            <mxPoint x="500" y="820" as="sourcePoint" />
            <mxPoint x="550" y="770" as="targetPoint" />
          </mxGeometry>
        </mxCell>
        <mxCell id="qmi-EahxrbX9RbDCokpx-47" value="total_price" style="ellipse;whiteSpace=wrap;html=1;dashed=1;" parent="1" vertex="1">
          <mxGeometry x="280" y="770" width="80" height="40" as="geometry" />
        </mxCell>
        <mxCell id="qmi-EahxrbX9RbDCokpx-48" value="" style="endArrow=none;html=1;rounded=0;" parent="1" source="qmi-EahxrbX9RbDCokpx-47" target="qmi-EahxrbX9RbDCokpx-10" edge="1">
          <mxGeometry width="50" height="50" relative="1" as="geometry">
            <mxPoint x="190" y="830" as="sourcePoint" />
            <mxPoint x="240" y="780" as="targetPoint" />
          </mxGeometry>
        </mxCell>
        <mxCell id="qmi-EahxrbX9RbDCokpx-50" value="description" style="ellipse;whiteSpace=wrap;html=1;" parent="1" vertex="1">
          <mxGeometry x="750" y="750" width="80" height="40" as="geometry" />
        </mxCell>
        <mxCell id="qmi-EahxrbX9RbDCokpx-51" value="" style="endArrow=none;html=1;rounded=0;" parent="1" source="qmi-EahxrbX9RbDCokpx-50" target="qmi-EahxrbX9RbDCokpx-11" edge="1">
          <mxGeometry width="50" height="50" relative="1" as="geometry">
            <mxPoint x="650" y="800" as="sourcePoint" />
            <mxPoint x="700" y="750" as="targetPoint" />
          </mxGeometry>
        </mxCell>
        <mxCell id="qmi-EahxrbX9RbDCokpx-52" value="status" style="ellipse;whiteSpace=wrap;html=1;" parent="1" vertex="1">
          <mxGeometry x="20" y="700" width="80" height="40" as="geometry" />
        </mxCell>
        <mxCell id="qmi-EahxrbX9RbDCokpx-53" value="" style="endArrow=none;html=1;rounded=0;" parent="1" source="qmi-EahxrbX9RbDCokpx-52" target="qmi-EahxrbX9RbDCokpx-10" edge="1">
          <mxGeometry width="50" height="50" relative="1" as="geometry">
            <mxPoint x="90" y="780" as="sourcePoint" />
            <mxPoint x="140" y="730" as="targetPoint" />
          </mxGeometry>
        </mxCell>
        <mxCell id="FjgEgrRR-Fpt9pbybKMB-7" value="" style="endArrow=none;html=1;rounded=0;" edge="1" parent="1" source="FjgEgrRR-Fpt9pbybKMB-20" target="qmi-EahxrbX9RbDCokpx-4">
          <mxGeometry width="50" height="50" relative="1" as="geometry">
            <mxPoint x="377.35849056603774" y="485.09433962264154" as="sourcePoint" />
            <mxPoint x="320" y="490" as="targetPoint" />
          </mxGeometry>
        </mxCell>
        <mxCell id="FjgEgrRR-Fpt9pbybKMB-22" value="M" style="edgeLabel;html=1;align=center;verticalAlign=middle;resizable=0;points=[];" vertex="1" connectable="0" parent="FjgEgrRR-Fpt9pbybKMB-7">
          <mxGeometry x="-0.6187" y="2" relative="1" as="geometry">
            <mxPoint x="15" y="-7" as="offset" />
          </mxGeometry>
        </mxCell>
        <mxCell id="FjgEgrRR-Fpt9pbybKMB-20" value="in_cart" style="rhombus;whiteSpace=wrap;html=1;" vertex="1" parent="1">
          <mxGeometry x="400" y="520" width="120" height="80" as="geometry" />
        </mxCell>
        <mxCell id="FjgEgrRR-Fpt9pbybKMB-21" value="" style="endArrow=none;html=1;rounded=0;" edge="1" parent="1" source="qmi-EahxrbX9RbDCokpx-11" target="FjgEgrRR-Fpt9pbybKMB-20">
          <mxGeometry width="50" height="50" relative="1" as="geometry">
            <mxPoint x="580" y="570" as="sourcePoint" />
            <mxPoint x="630" y="520" as="targetPoint" />
          </mxGeometry>
        </mxCell>
        <mxCell id="FjgEgrRR-Fpt9pbybKMB-23" value="N" style="edgeLabel;html=1;align=center;verticalAlign=middle;resizable=0;points=[];" vertex="1" connectable="0" parent="FjgEgrRR-Fpt9pbybKMB-21">
          <mxGeometry x="0.758" y="-1" relative="1" as="geometry">
            <mxPoint x="12" as="offset" />
          </mxGeometry>
        </mxCell>
        <mxCell id="FjgEgrRR-Fpt9pbybKMB-24" value="quantity" style="ellipse;whiteSpace=wrap;html=1;" vertex="1" parent="1">
          <mxGeometry x="530" y="490" width="80" height="40" as="geometry" />
        </mxCell>
        <mxCell id="FjgEgrRR-Fpt9pbybKMB-25" value="" style="endArrow=none;html=1;rounded=0;" edge="1" parent="1" source="FjgEgrRR-Fpt9pbybKMB-20" target="FjgEgrRR-Fpt9pbybKMB-24">
          <mxGeometry width="50" height="50" relative="1" as="geometry">
            <mxPoint x="480" y="530" as="sourcePoint" />
            <mxPoint x="530" y="480" as="targetPoint" />
          </mxGeometry>
        </mxCell>
      </root>
    </mxGraphModel>
  </diagram>
</mxfile>
